<!-- Generated by IcoMoon.io -->
<svg version="1.1" xmlns="http://www.w3.org/2000/svg" width="32" height="32" viewBox="0 0 32 32">
<title>Location</title>
<path d="M21.333 10.667c0 2.938-2.396 5.333-5.333 5.333s-5.333-2.396-5.333-5.333c0-2.938 2.396-5.333 5.333-5.333s5.333 2.396 5.333 5.333zM26.667 10.667c0-5.896-4.771-10.667-10.667-10.667s-10.667 4.771-10.667 10.667c0 1.271 0.146 2.583 0.688 3.729l7.604 16.125c0.417 0.917 1.375 1.479 2.375 1.479s1.958-0.562 2.396-1.479l7.583-16.125c0.542-1.146 0.688-2.458 0.688-3.729z"></path>
</svg>
